<svg id="Layer_1" enable-background="new 0 0 480 480" height="512" viewBox="0 0 480 480" width="512" xmlns="http://www.w3.org/2000/svg"><path d="m472 54.998v288c0 13.25-10.75 24-24 24h-180v66.94c-18.298-1.222-37-1.281-56-.01v-66.93h-180c-13.25 0-24-10.75-24-24v-288c0-13.25 10.75-24 24-24h416c13.25 0 24 10.75 24 24z" fill="#d6f4fc"/><path d="m268 366.998v66.94c-18.252-1.219-36.953-1.284-56-.01v-66.93z" fill="#4d4e59"/><path d="m448 30.998c13.255 0 24 10.745 24 24 0 15.397-13.46 27.289-28.749 25.469-180.612-21.498-344.768 77.818-380.309 265.636-2.29 12.101-12.806 20.895-25.121 20.895h-5.821c-13.255 0-24-10.745-24-24v-288c0-13.255 10.745-24 24-24z" fill="#e8f8fc"/><path d="m336 125.998v144c0 13.25-10.75 24-24 24h-144c-13.25 0-24-10.75-24-24v-144c0-13.25 10.75-24 24-24h144c13.25 0 24 10.75 24 24z" fill="#fff"/><path d="m336 125.998c0 1.959 0 60.139 0 59.43 0 9.899-7.891 18.161-17.79 18.24-.202.002-156.293.001-156.42 0-9.899-.078-17.79-8.34-17.79-18.24v-59.43c0-5.14 1.62-9.91 4.39-13.82 3.96-2.44 8.62-3.85 13.61-3.85h156c4.99 0 9.65 1.41 13.61 3.85 2.77 3.91 4.39 8.68 4.39 13.82z" fill="#f9f9f9"/><path d="m336 165.998c0 13.252-10.76 24-24 24-13.25 0-24-10.75-24-24 0 13.25-10.75 24-24 24s-24-10.75-24-24c0 13.25-10.75 24-24 24-13.252 0-24-10.76-24-24 0 13.252-10.76 24-24 24-13.25 0-24-10.75-24-24v-40c0-13.25 10.75-24 24-24h144c13.25 0 24 10.75 24 24z" fill="#fe4f60"/><path d="m212 366.998h56v25h-56z" fill="#42434d"/><path d="m336 125.998c0 8.837-7.163 16-16 16h-112c-13.255 0-24 10.745-24 24v8.023c0 8.555-6.723 15.788-15.275 15.987-12.568.293-24.725-9.438-24.725-24.01v-40c0-13.255 10.745-24 24-24h144c13.255 0 24 10.746 24 24z" fill="#ff6d7a"/><path d="m448 22.998h-416c-17.645 0-32 14.355-32 32v288c0 17.645 14.355 32 32 32h172v31c0 4.418 3.582 8 8 8s8-3.582 8-8v-29h40v29c0 4.418 3.582 8 8 8s8-3.582 8-8v-31h172c17.645 0 32-14.355 32-32v-288c0-17.645-14.355-32-32-32zm16 320c0 8.822-7.178 16-16 16h-416c-8.822 0-16-7.178-16-16v-288c0-8.822 7.178-16 16-16h416c8.822 0 16 7.178 16 16zm-104.361 108.377c-1.312 4.219-5.797 6.578-10.015 5.262-67.241-20.918-152.438-20.785-219.247 0-4.217 1.312-8.702-1.041-10.015-5.262-1.313-4.219 1.043-8.703 5.262-10.015 69.913-21.751 158.43-21.879 228.753 0 4.218 1.312 6.574 5.796 5.262 10.015zm-119.639-264.244c-19.457 22.071-56 8.265-56-21.132 0-4.418 3.582-8 8-8s8 3.582 8 8c0 8.822 7.178 16 16 16s16-7.178 16-16c0-4.418 3.582-8 8-8s8 3.582 8 8c0 8.822 7.178 16 16 16s16-7.178 16-16c0-4.418 3.582-8 8-8s8 3.582 8 8c0 8.822 7.178 16 16 16 4.418 0 8 3.582 8 8s-3.582 8-8 8c-9.551 0-18.132-4.211-24-10.868-12.788 14.506-35.24 14.474-48 0zm104-61.133v36.334c0 4.418-3.582 8-8 8s-8-3.582-8-8v-36.334c0-8.822-7.178-16-16-16h-144c-8.822 0-16 7.178-16 16v40c0 8.822 7.178 16 16 16 4.418 0 8 3.582 8 8s-3.582 8-8 8c-5.827 0-11.289-1.573-16-4.305v76.305c0 8.822 7.178 16 16 16h144c8.822 0 16-7.178 16-16v-60c0-4.418 3.582-8 8-8s8 3.582 8 8v60c0 17.645-14.355 32-32 32h-144c-17.645 0-32-14.355-32-32v-144c0-17.645 14.355-32 32-32h144c17.645 0 32 14.355 32 32zm-78 102c4.418 0 8 3.582 8 8s-3.582 8-8 8h-52c-4.418 0-8-3.582-8-8s3.582-8 8-8z"/></svg>