<svg id="Layer_1" enable-background="new 0 0 480 480" height="512" viewBox="0 0 480 480" width="512" xmlns="http://www.w3.org/2000/svg"><path d="m402 205c4.418 0 8 3.582 8 8v228c0 13.25-10.74 24-24 24-5.111 0-298.586 0-292.09 0-13.205 0-23.91-10.705-23.91-23.91v-228.09c0-4.418 3.582-8 8-8 8.451 0 326.331 0 324 0z" fill="#ffaa64"/><path d="m394 39.48v55.52c0 8.837-7.163 16-16 16h-27c-8.837 0-16 7.163-16 16v78h-190v-78c0-8.837-7.163-16-16-16h-27c-8.837 0-16-7.163-16-16v-55.521c0-8.22 6.232-15.103 14.411-15.921 45.724-4.574 38.726-3.874 70.202-7.02 7.861-.786 15.116 4.285 17.082 11.936 5.987 23.302 27.137 40.526 52.305 40.526s46.318-17.224 52.305-40.525c1.966-7.651 9.22-12.722 17.08-11.936l70.207 7.021c8.179.817 14.408 7.7 14.408 15.92z" fill="#ffa4b8"/><path d="m410 213v28c0 13.255-10.745 24-24 24h-154c-56.333 0-102 45.667-102 102v74c0 13.255-10.745 24-24 24h-12.09c-13.205 0-23.91-10.705-23.91-23.91v-228.09c0-4.418 3.582-8 8-8h324c4.418 0 8 3.582 8 8z" fill="#ffbd7b"/><path d="m394 95c0 8.837-7.163 16-16 16h-27c-8.856 0-16 7.18-16 16v78h-149.371c-5.528 0-9.437-5.49-7.538-10.682 28.157-76.988 100.045-125.979 198.173-118.416 9.996.77 17.736 9.073 17.736 19.098z" fill="#ff99af"/><path d="m175 380c0 4.418-3.582 8-8 8h-40c-4.418 0-8-3.582-8-8s3.582-8 8-8h40c4.419 0 8 3.582 8 8zm-8 32h-40c-4.418 0-8 3.582-8 8s3.582 8 8 8h40c4.418 0 8-3.582 8-8s-3.581-8-8-8zm310.657-150.656c-66.76-66.76-62.516-62.985-64.937-63.859-2.008-.727 11.96-.485-259.72-.485v-86c0-4.418-3.582-8-8-8h-51v-70.76l48.175-4.817c4.396-.44 7.604-4.36 7.165-8.756s-4.359-7.602-8.756-7.165l-55.38 5.538c-4.09.409-7.204 3.85-7.204 7.96v86c0 4.418 3.582 8 8 8h51v78c-71.864 0-67.794-.213-69.72.484-2.434.879 1.937-3.015-64.937 63.859-3.125 3.124-3.125 8.189 0 11.313 3.125 3.125 8.189 3.124 11.313 0l48.344-48.342v216.686c0 17.583 14.255 31.898 31.814 32 .05.001 292.137 0 292.187 0 17.645 0 31.999-14.355 31.999-32v-186c0-4.418-3.582-8-8-8s-8 3.582-8 8v186c0 8.822-7.177 16-15.999 16h-292.001c-8.822 0-16-7.178-16-16v-228h328.687l59.657 59.657c3.125 3.125 8.189 3.124 11.313 0s3.124-8.189 0-11.313zm-237.657-184.344c31.207 0 57.104-23.178 61.38-53.222l84.62 8.462v70.76h-51c-4.418 0-8 3.582-8 8v51c0 4.418 3.582 8 8 8s8-3.582 8-8v-43h51c4.418 0 8-3.582 8-8v-86c0-4.11-3.114-7.551-7.204-7.96l-100-10c-4.722-.468-8.796 3.242-8.796 7.96 0 25.364-20.636 46-46 46s-46-20.636-46-46c0-4.418-3.582-8-8-8s-8 3.582-8 8c0 34.187 27.813 62 62 62z"/></svg>