<svg id="Layer_1" enable-background="new 0 0 480.001 480.001" height="512" viewBox="0 0 480.001 480.001" width="512" xmlns="http://www.w3.org/2000/svg"><circle cx="228.94" cy="240" fill="#f1fafc" r="220.94"/><path d="m228.94 240v220.94c6.63-4.06 123.8-78.69 123.8-220.94z" fill="#caf2fc"/><path d="m228.94 19.06v220.94h123.8c0-142.25-117.17-216.88-123.8-220.94z" fill="#d6f4fc"/><path d="m228.94 19.06c6.63 4.06 123.8 78.69 123.8 220.94h97.14c0-122.02-98.92-220.94-220.94-220.94z" fill="#bdeffc"/><path d="m352.74 240c0 142.25-117.17 216.88-123.8 220.94 122.02 0 220.94-98.92 220.94-220.94z" fill="#b0edfc"/><path d="m228.94 240v220.94c-6.63-4.06-123.8-78.69-123.8-220.94z" fill="#dbf5fc"/><path d="m228.94 19.06v220.94h-123.8c0-142.25 117.17-216.88 123.8-220.94z" fill="#e8f8fc"/><path d="m105.14 240c0 142.25 117.17 216.88 123.8 220.94-122.02 0-220.94-98.92-220.94-220.94z" fill="#e5f8fc"/><path d="m442.115 253.63c8.907 0 16.373 6.71 17.338 15.559l12.442 114.285c1.128 10.314-6.954 19.327-17.338 19.327h-141.914c-10.384 0-18.466-9.012-17.338-19.327l12.442-114.285c.965-8.849 8.431-15.559 17.338-15.559z" fill="#ffaa64"/><path d="m442.117 288.516c-56.348 0-102.407 42.419-108.354 97.066-1.066 9.797-9.34 17.219-19.195 17.219h-1.925c-10.384 0-18.466-9.012-17.338-19.327l12.442-114.285c.965-8.849 8.431-15.559 17.338-15.559h117.029c8.901 0 16.373 6.703 17.337 15.551 1.126 10.337-6.965 19.335-17.334 19.335z" fill="#ffbd7b"/><path d="m321.947 431.612c-21.046 10.235-43.242 16.802-66.25 19.664 6.946-5.684 15.022-12.822 23.577-21.439 3.113-3.136 3.095-8.201-.04-11.314-3.136-3.112-8.201-3.095-11.313.041-12 12.086-23.056 21.134-30.98 27.082v-197.645h33.862c4.418 0 8-3.582 8-8s-3.582-8-8-8h-33.863v-197.668c20.999 15.736 63.974 53.257 88.892 112.105 1.726 4.075 6.426 5.968 10.486 4.248 4.068-1.723 5.971-6.417 4.248-10.486-23.063-54.465-60.868-91.781-84.962-111.507 71.112 8.769 132.804 52.358 164.864 118.131 1.936 3.971 6.724 5.621 10.696 3.686 3.972-1.936 5.622-6.725 3.687-10.697-37.685-77.312-116.58-128.753-205.911-128.753-126.535 0-228.94 102.394-228.94 228.941 0 126.512 102.367 228.926 228.913 228.94 35.056 0 68.699-7.702 100.032-22.941 3.974-1.932 5.628-6.72 3.695-10.693-1.932-3.973-6.718-5.628-10.693-3.695zm-101.007 14.035c-12.022-9.026-31.273-25.209-50.187-48.408-36.449-44.707-55.754-94.88-57.476-149.239h107.663zm0-418.421v204.775h-107.67c2.5-77.402 40.906-133.38 73.299-167.089 3.062-3.186 2.96-8.25-.226-11.311-3.187-3.062-8.251-2.961-11.312.225-34.434 35.833-75.276 95.459-77.772 178.175h-81.093c4.124-111.066 93.708-200.65 204.774-204.775zm-204.774 220.775h81.104c3.19 105.922 69.061 173.952 104.903 203.263-102.235-12.88-182.118-98.526-186.007-203.263zm463.683 134.602-12.441-114.28c-1.409-12.935-12.282-22.688-25.293-22.688h-9.916v-18.525c0-26.798-21.802-48.599-48.6-48.599s-48.599 21.8-48.599 48.598v18.525h-9.916c-13.011 0-23.884 9.754-25.293 22.689l-12.441 114.279c-1.638 15.045 10.166 28.197 25.293 28.197h141.913c15.08 0 26.937-13.1 25.293-28.196zm-25.293 12.196h-141.913c-5.645 0-9.996-4.884-9.387-10.465l12.441-114.279c.522-4.801 4.559-8.421 9.387-8.421h9.916v15.818c0 4.418 3.582 8 8 8s8-3.582 8-8v-50.343c0-17.975 14.624-32.599 32.599-32.599 17.976 0 32.6 14.624 32.6 32.599v18.525h-41.541c-4.418 0-8 3.582-8 8s3.582 8 8 8h41.541v15.818c0 4.418 3.582 8 8 8s8-3.582 8-8v-15.818h9.916c4.828 0 8.864 3.62 9.387 8.42l12.441 114.28c.611 5.6-3.763 10.465-9.387 10.465z"/></svg>