<svg id="Layer_1" enable-background="new 0 0 480 480" height="512" viewBox="0 0 480 480" width="512" xmlns="http://www.w3.org/2000/svg"><g fill="#d6f4fc"><path d="m120 258v102c0 4.418-3.582 8-8 8h-32c-4.418 0-8-3.582-8-8v-102c0-4.418 3.582-8 8-8h32c4.418 0 8 3.582 8 8z"/><path d="m216 258v52c0 4.418-3.582 8-8 8h-32c-4.418 0-8-3.582-8-8v-52c0-4.418 3.582-8 8-8h32c4.418 0 8 3.582 8 8z"/><path d="m312 258v52c0 4.418-3.582 8-8 8h-32c-4.418 0-8-3.582-8-8v-52c0-4.418 3.582-8 8-8h32c4.418 0 8 3.582 8 8z"/><path d="m408 258v102c0 4.418-3.582 8-8 8h-32c-4.418 0-8-3.582-8-8v-102c0-4.418 3.582-8 8-8h32c4.418 0 8 3.582 8 8z"/><path d="m408 120v82c0 4.418-3.582 8-8 8h-32c-4.418 0-8-3.582-8-8v-82c0-4.418 3.582-8 8-8h32c4.418 0 8 3.582 8 8z"/><path d="m312 120v82c0 4.418-3.582 8-8 8h-32c-4.418 0-8-3.582-8-8v-82c0-4.418 3.582-8 8-8h32c4.418 0 8 3.582 8 8z"/><path d="m216 120v82c0 4.418-3.582 8-8 8h-32c-4.418 0-8-3.582-8-8v-82c0-4.418 3.582-8 8-8h32c4.418 0 8 3.582 8 8z"/><path d="m120 120v82c0 4.418-3.582 8-8 8h-32c-4.418 0-8-3.582-8-8v-82c0-4.418 3.582-8 8-8h32c4.418 0 8 3.582 8 8z"/></g><path d="m0 118v-66c0-17.645 14.355-32 32-32h66c4.418 0 8 3.582 8 8s-3.582 8-8 8h-66c-8.822 0-16 7.178-16 16v66c0 4.418-3.582 8-8 8s-8-3.582-8-8zm448-98h-66c-4.418 0-8 3.582-8 8s3.582 8 8 8h66c8.822 0 16 7.178 16 16v66c0 4.418 3.582 8 8 8s8-3.582 8-8v-66c0-17.645-14.355-32-32-32zm-350 424h-66c-8.822 0-16-7.178-16-16v-66c0-4.418-3.582-8-8-8s-8 3.582-8 8v66c0 17.645 14.355 32 32 32h66c4.418 0 8-3.582 8-8s-3.582-8-8-8zm374-90c-4.418 0-8 3.582-8 8v66c0 8.822-7.178 16-16 16h-66c-4.418 0-8 3.582-8 8s3.582 8 8 8h66c17.645 0 32-14.355 32-32v-66c0-4.418-3.582-8-8-8zm8-144c0 4.418-3.582 8-8 8h-464c-4.418 0-8-3.582-8-8s3.582-8 8-8h56v-90c0-4.418 3.582-8 8-8h48c4.418 0 8 3.582 8 8v90h32v-90c0-4.418 3.582-8 8-8h48c4.418 0 8 3.582 8 8v90h32v-90c0-4.418 3.582-8 8-8h48c4.418 0 8 3.582 8 8v90h32v-90c0-4.418 3.582-8 8-8h48c4.418 0 8 3.582 8 8v90h56c4.418 0 8 3.582 8 8zm-112-8h32v-82h-32zm-96 0h32v-82h-32zm-96 0h32v-82h-32zm-96 0h32v-82h-32zm48 48v118c0 4.418-3.582 8-8 8h-48c-4.418 0-8-3.582-8-8v-118c0-4.418 3.582-8 8-8h48c4.418 0 8 3.582 8 8zm-16 8h-32v102h32zm48 60v-68c0-4.418 3.582-8 8-8h48c4.418 0 8 3.582 8 8v68c0 4.418-3.582 8-8 8h-48c-4.418 0-8-3.582-8-8zm16-8h32v-52h-32zm144-60v68c0 4.418-3.582 8-8 8h-48c-4.418 0-8-3.582-8-8v-68c0-4.418 3.582-8 8-8h48c4.418 0 8 3.582 8 8zm-16 8h-32v52h32zm104 118h-48c-4.418 0-8-3.582-8-8v-118c0-4.418 3.582-8 8-8h48c4.418 0 8 3.582 8 8v118c0 4.418-3.582 8-8 8zm-8-118h-32v102h32zm-144 102h-88c-4.418 0-8 3.582-8 8s3.582 8 8 8h88c4.418 0 8-3.582 8-8s-3.582-8-8-8zm55 0h-15c-4.418 0-8 3.582-8 8s3.582 8 8 8h15c4.418 0 8-3.582 8-8s-3.582-8-8-8z"/></svg>