<svg id="Layer_1" enable-background="new 0 0 480 480" height="512" viewBox="0 0 480 480" width="512" xmlns="http://www.w3.org/2000/svg"><path d="m315 8c17.67 0 32 14.33 32 32v400c0 17.67-14.33 32-32 32h-220c-17.67 0-32-14.33-32-32v-400c0-17.67 14.33-32 32-32z" fill="#d6f4fc"/><path d="m316.512 8.035c25.735 1.197 24.37 39.965-1.393 39.965h-104.119c-59.647 0-108 48.353-108 108v316h-8c-17.673 0-32-14.327-32-32v-400c0-17.673 14.327-32 32-32 1.448 0 220.338-.02 221.512.035z" fill="#e8f8fc"/><path d="m347 402v38c0 17.67-14.33 32-32 32h-220c-17.67 0-32-14.33-32-32v-38z" fill="#42434d"/><path d="m103 402v38.119c0 26.061-40 27.393-40-.119v-38z" fill="#4d4e59"/><path d="m417 132v156c0 13.25-10.75 24-24 24h-188v-204h188c13.25 0 24 10.75 24 24z" fill="#fe4f60"/><path d="m417 132v20.75c0 13.043-10.439 23.596-23.478 23.946-70.18 1.882-128.088 47.358-147.063 117.53-2.835 10.482-12.317 17.774-23.176 17.774h-18.283v-204h188c13.255 0 24 10.745 24 24z" fill="#ff6d7a"/><path d="m205 154h212v46h-212z" fill="#42434d"/><path d="m416.97 154c-.64 12.46-10.83 22.36-23.45 22.7-22.5.6-50.82 5.86-78.73 23.3h-109.79v-46z" fill="#4d4e59"/><path d="m195 443c-4.418 0-8-3.582-8-8s3.582-8 8-8h20c4.418 0 8 3.582 8 8s-3.582 8-8 8zm198-343h-38v-60c0-22.056-17.944-40-40-40h-220c-22.056 0-40 17.944-40 40v400c0 22.056 17.944 40 40 40h220c22.056 0 40-17.944 40-40v-83c0-4.418-3.582-8-8-8s-8 3.582-8 8v37h-229c-4.418 0-8 3.582-8 8s3.582 8 8 8h229v30c0 13.233-10.767 24-24 24h-220c-13.233 0-24-10.767-24-24v-400c0-13.233 10.767-24 24-24h220c13.233 0 24 10.767 24 24v60h-126v-12c0-4.418-3.582-8-8-8s-8 3.582-8 8v244c0 4.418 3.582 8 8 8s8-3.582 8-8v-216h180c8.822 0 16 7.178 16 16v14h-167c-4.418 0-8 3.582-8 8s3.582 8 8 8h167v30h-167c-4.418 0-8 3.582-8 8s3.582 8 8 8h167v80c0 8.822-7.178 16-16 16h-141c-4.418 0-8 3.582-8 8s3.582 8 8 8h141c17.645 0 32-14.355 32-32v-156c0-17.645-14.355-32-32-32z"/></svg>