<svg id="Layer_1" enable-background="new 0 0 480 480" viewBox="0 0 480 480" xmlns="http://www.w3.org/2000/svg"><path d="m472 103v274c0 17.7-14.3 32-32 32h-400c-17.7 0-32-14.3-32-32v-274c0-17.7 14.3-32 32-32h400c17.7 0 32 14.3 32 32z" fill="#fe4f60"/><path d="m472 103v24.8c0 9.4-8 16-15.2 16-168 8.3-299.2 108.9-354.1 254.9-2.3 6.2-8.3 10.4-15 10.4h-47.7c-17.7 0-32-14.3-32-32v-274.1c0-17.7 14.3-32 32-32h400c17.7 0 32 14.3 32 32z" fill="#ff6d7a"/><path d="m8 143h464v68h-464z" fill="#42434d"/><path d="m461 143c-9.9 3.2-108.6-1.7-211.3 67.8-.4.3 10.9.2-241.7.2v-68z" fill="#4d4e59"/><path d="m440 63h-400c-22.1 0-40 17.9-40 40v108c0 4.4 3.6 8 8 8h418c4.4 0 8-3.6 8-8s-3.6-8-8-8h-410v-52h410c4.4 0 8-3.6 8-8s-3.6-8-8-8h-410v-32c0-13.2 10.8-24 24-24h400c13.2 0 24 10.8 24 24v274c0 13.2-10.8 24-24 24h-400c-13.2 0-24-10.8-24-24v-120c0-4.4-3.6-8-8-8s-8 3.6-8 8v120c0 22.1 17.9 40 40 40h400c22.1 0 40-17.9 40-40v-274c0-22.1-17.9-40-40-40zm-367 231h67c4.4 0 8-3.6 8-8s-3.6-8-8-8h-67c-4.4 0-8 3.6-8 8s3.6 8 8 8zm0 50h67c4.4 0 8-3.6 8-8s-3.6-8-8-8h-67c-4.4 0-8 3.6-8 8s3.6 8 8 8z"/></svg>