<svg id="Layer_1" enable-background="new 0 0 480 480" height="512" viewBox="0 0 480 480" width="512" xmlns="http://www.w3.org/2000/svg"><path d="m472 92v196c0 17.67-14.33 32-32 32h-400c-17.67 0-32-14.33-32-32 0 1 0-189.34 0-196 0-17.67 14.33-32 32-32h400c17.67 0 32 14.33 32 32z" fill="#befa91"/><path d="m472 92v25.726c0 14.522-12.789 25.678-27.187 23.787-151.128-19.855-291.795 29.777-364.452 165.888-4.154 7.781-12.298 12.599-21.118 12.599h-19.243c-17.67 0-32-14.33-32-32 0 1 0-189.34 0-196 0-17.67 14.33-32 32-32h400c17.673 0 32 14.327 32 32z" fill="#d0ffad"/><path d="m197.91 228.55c-57.583 135.97-48.269 114.012-55.49 130.94l-10.72-27.8c-7.09-18.29-7.21-38.88-.04-57.5l44.94-116.95c2.33-6.06 10.48-6.95 14.13-1.59 14.42 21.24 17.41 48.66 7.18 72.9z" fill="#d6f4fc"/><path d="m201.53 217.85c-23.271 17.002-41.24 39.283-52.859 64.533-5.041 10.955-21.567 4.06-17.37-7.246.266-.718 45.023-117.182 45.298-117.897 2.33-6.06 10.48-6.95 14.13-1.59 12.331 18.16 16.301 40.85 10.801 62.2z" fill="#e8f8fc"/><path d="m480 92v196c0 22.056-17.944 40-40 40h-236c-4.418 0-8-3.582-8-8s3.582-8 8-8h236c13.233 0 24-10.767 24-24v-196c0-13.233-10.767-24-24-24h-400c-13.233 0-24 10.767-24 24v196c0 13.233 10.767 24 24 24h50c4.418 0 8 3.582 8 8s-3.582 8-8 8h-50c-22.053 0-39.996-17.939-40-39.992 0-.197 0-163.311 0-196.008 0-22.056 17.944-40 40-40h400c22.056 0 40 17.944 40 40zm-334 81v-69c0-4.418-3.582-8-8-8s-8 3.582-8 8v69c0 4.418 3.582 8 8 8s8-3.582 8-8zm214.899-22.213-78.333 78.333c-3.125 3.125-3.125 8.189 0 11.314 3.125 3.124 8.189 3.123 11.313 0l78.333-78.333c3.125-3.125 3.125-8.189 0-11.314-3.123-3.122-8.188-3.123-11.313 0zm8.268 65.546c8.73 0 15.833 7.104 15.833 15.834s-7.103 15.833-15.833 15.833-15.833-7.103-15.833-15.833 7.102-15.834 15.833-15.834zm-.167 15.834c0 .184.332.185.333 0 0-.184-.333-.184-.333 0zm-62.333-78.334c0 8.73-7.103 15.834-15.833 15.834s-15.834-7.104-15.834-15.834 7.103-15.833 15.834-15.833 15.833 7.103 15.833 15.833zm-15.833-.166c-.221 0-.22.333 0 .333.218 0 .222-.333 0-.333zm-155.451 243.413c-5.055 17.822-21.463 30.92-40.883 30.92-23.435 0-42.5-19.065-42.5-42.5s19.065-42.5 42.5-42.5c15.945 0 29.86 8.831 37.13 21.854l2.244-5.312-9.638-24.969c-7.871-20.391-7.887-42.856-.045-63.258l49.841-129.687c2.076-5.406 9.041-6.87 13.124-2.787 24.487 24.487 31.6 60.921 18.122 92.819zm7.454-58.749 47.703-112.895c9.229-21.845 6.553-46.312-6.458-65.353l-44.956 116.974c-10.804 28.113-.822 49.529 3.711 61.274zm-21.837 47.169c0-14.612-11.888-26.5-26.5-26.5s-26.5 11.888-26.5 26.5 11.888 26.5 26.5 26.5 26.5-11.888 26.5-26.5zm122 0c0 23.435-19.065 42.5-42.5 42.5s-42.5-19.065-42.5-42.5 19.065-42.5 42.5-42.5 42.5 19.065 42.5 42.5zm-16 0c0-14.612-11.888-26.5-26.5-26.5s-26.5 11.888-26.5 26.5 11.888 26.5 26.5 26.5 26.5-11.888 26.5-26.5z"/></svg>