<svg id="Layer_1" enable-background="new 0 0 480.115 480.115" height="512" viewBox="0 0 480.115 480.115" width="512" xmlns="http://www.w3.org/2000/svg"><path d="m448.034 177.677v262.38c0 17.67-14.33 32-32 32h-352c-17.67 0-32-14.33-32-32 0-248.047-.021-201.581.07-262.38z" fill="#d6f4fc"/><path d="m448.034 177.677v60.598c0 13.114-10.512 23.978-23.626 24.031-.146.001-368.493.001-368.759 0-13.11-.057-23.615-10.921-23.615-24.031 0-17.484-.013-5.22.07-60.598z" fill="#bdeffc"/><path d="m472.034 177.677c0 32.017-25.963 58-58 58-32.03 0-58-25.97-58-58 0 32.03-25.97 58-58 58s-58-25.97-58-58c0 32.03-25.97 58-58 58s-58-25.97-58-58c-.05 31.82-26.24 58-58 58-31.721 0-57.95-26.147-58-58 0-50.408-.138-47.306.35-49.62.48-2.271-2.847 5.77 47.47-110.36 2.54-5.85 8.31-9.64 14.68-9.64h339c6.37 0 12.14 3.79 14.68 9.64 50.472 116.487 46.965 107.974 47.47 110.36.487 2.31.35-.842.35 49.62z" fill="#ff6d7a"/><path d="m472.034 177.677c0 32.017-25.963 58-58 58-32.03 0-58-25.97-58-58 0 32.03-25.97 58-58 58s-58-25.97-58-58c0 32.03-25.97 58-58 58s-58-25.97-58-58c-.05 31.82-26.24 58-58 58-31.721 0-57.95-26.147-58-58-.079-50.684-.067-47.643.35-49.62h463.3c.487 2.31.35-.842.35 49.62z" fill="#fe4f60"/><path d="m405.211 50.805c-101.577-13.98-204.092 3.951-287.008 66.429-9.333 7.033-20.709 10.823-32.395 10.823h-77.424c.48-2.271-2.847 5.77 47.47-110.36 2.54-5.85 8.31-9.64 14.68-9.64h339c6.376 0 12.143 3.786 14.678 9.636l2.229 5.142c6.246 14.413-5.669 30.111-21.23 27.97z" fill="#ff7c87"/><path d="m456.034 271.057v169c0 22.056-17.944 40-40 40h-352c-22.056 0-40-17.944-40-40v-169c0-4.418 3.582-8 8-8s8 3.582 8 8v169c0 13.233 10.767 24 24 24h352c13.233 0 24-10.767 24-24v-169c0-4.418 3.582-8 8-8s8 3.582 8 8zm-404-143c0 4.418 3.582 8 8 8 438.564 0 413.716.775 416.887-1.676 1.615-1.252 2.725-3.073 3.028-5.219.444-3.214 3.397 4.88-52.574-124.285-1.269-2.926-4.152-4.819-7.341-4.819h-360c-3.188 0-6.072 1.894-7.341 4.819l-52 120c-.919 2.122-.659-1.246-.659 52.813.057 36.386 29.664 65.987 66 65.987 24.979 0 46.778-13.99 57.983-34.556 25.025 45.989 90.944 46.042 116.017.03 25.05 45.972 90.941 45.987 116 0 11.197 20.549 32.998 34.525 58 34.525 36.393 0 66-29.607 66-66 0-4.418-3.582-8-8-8s-8 3.582-8 8c0 27.57-22.43 50-50 50s-50-22.43-50-50c0-4.418-3.582-8-8-8s-8 3.582-8 8c0 27.57-22.43 50-50 50s-50-22.43-50-50c0-4.418-3.582-8-8-8s-8 3.582-8 8c0 27.57-22.43 50-50 50-26.958 0-50-21.664-50-50.4 0-4.418-3.582-8-8-8s-8 3.582-8 8c0 28.494-22.899 50.4-50 50.4-27.527 0-49.957-22.436-50-50v-47.961l49.252-113.658h349.496l45.066 104h-399.814c-4.418 0-8 3.582-8 8zm32 198c0-20.732 16.867-37.6 37.6-37.6s37.601 16.867 37.601 37.6-16.867 37.6-37.601 37.6c-20.733 0-37.6-16.867-37.6-37.6zm16 0c0 11.91 9.689 21.6 21.6 21.6s21.601-9.689 21.601-21.6-9.69-21.6-21.601-21.6-21.6 9.69-21.6 21.6zm90.667 37.6c-4.418 0-8-3.582-8-8v-59.199c0-4.418 3.582-8 8-8h19.733c15.292 0 27.733 12.441 27.733 27.733s-12.441 27.732-27.733 27.732h-11.733v11.733c0 4.419-3.582 8.001-8 8.001zm8-35.733h11.733c6.47 0 11.733-5.263 11.733-11.732s-5.264-11.733-11.733-11.733h-11.733zm110.399-23.466c4.418 0 8-3.582 8-8s-3.582-8-8-8h-39.467c-4.418 0-8 3.582-8 8v59.199c0 4.418 3.582 8 8 8h39.467c4.418 0 8-3.582 8-8s-3.582-8-8-8h-31.467v-13.6h19.4c4.418 0 8-3.582 8-8s-3.582-8-8-8h-19.4v-13.6h31.467zm47.467 51.199v-32.777l24.811 37.215c4.376 6.565 14.656 3.452 14.656-4.438v-59.199c0-4.418-3.582-8-8-8s-8 3.582-8 8v32.777l-24.811-37.215c-4.375-6.565-14.656-3.452-14.656 4.438v59.199c0 4.418 3.582 8 8 8s8-3.582 8-8zm-264.533 62.4h296c4.418 0 8-3.582 8-8s-3.582-8-8-8h-296c-4.418 0-8 3.582-8 8s3.582 8 8 8z"/></svg>