<svg id="Layer_1" enable-background="new 0 0 480 480" height="512" viewBox="0 0 480 480" width="512" xmlns="http://www.w3.org/2000/svg"><path d="m416 146v190c0 13.25-10.75 24-24 24h-190c-13.25 0-24-10.75-24-24v-190c0-13.25 10.75-24 24-24h190c13.25 0 24 10.75 24 24z" fill="#ffaa64"/><path d="m391.937 162h-109.937c-35.346 0-64 28.654-64 64v109.937c0 25.172-37.543 27.395-39.894 2.333-.165-1.759-.106-193.27-.106-192.27 0-13.255 10.745-24 24-24h190c27.258 0 26.007 40-.063 40z" fill="#ffbd7b"/><path d="m334 122v56.45c0 8.84-7.16 16-16 16h-41c-8.84 0-16-7.16-16-16v-56.45z" fill="#e8f8fc"/><path d="m334 162v16.45c0 8.84-7.16 16-16 16h-41c-8.84 0-16-7.16-16-16v-12.92c13.121-4.566 17.578-3.53 73-3.53z" fill="#d6f4fc"/><path d="m222 393c0 43.63-35.37 79-79 79s-79-35.37-79-79c0-58.859 62.031-96.627 114-70.84 26.183 12.954 44 39.912 44 70.84z" fill="#42434d"/><path d="m191.538 330.71c9.842 7.694 4.298 23.344-8.195 23.291-45.952-.195-79.582 37.625-79.413 79.441.05 12.466-15.684 17.844-23.336 8.003-10.401-13.378-16.594-30.189-16.594-48.445 0-65.446 75.682-102.828 127.538-62.29z" fill="#4d4e59"/><path d="m169.87 419.87c-24.483 24.518-67.218 5.816-64.78-29.57 1.3-18.73 16.48-33.91 35.21-35.21 35.333-2.434 54.137 40.248 29.57 64.78z" fill="#2c2c33"/><path d="m385.657 413.343c3.125 3.125 3.125 8.189 0 11.314-3.125 3.124-8.189 3.123-11.313 0l-23.658-23.657h-89.353c-4.418 0-8-3.582-8-8s3.582-8 8-8h92.667c2.122 0 4.157.843 5.657 2.343zm-130.657-116.343c0-4.418-3.582-8-8-8h-27c-4.418 0-8 3.582-8 8s3.582 8 8 8h27c4.418 0 8-3.582 8-8zm137-183h-190c-17.645 0-32 14.355-32 32v127c0 4.418 3.582 8 8 8s8-3.582 8-8v-127c0-8.822 7.178-16 16-16h51v48.449c0 13.233 10.766 24 24 24h41c13.234 0 24-10.767 24-24v-25.449c0-4.418-3.582-8-8-8s-8 3.582-8 8v25.449c0 4.411-3.589 8-8 8h-41c-4.411 0-8-3.589-8-8v-48.449h123c8.822 0 16 7.178 16 16v190c0 8.822-7.178 16-16 16h-136c-4.418 0-8 3.582-8 8s3.582 8 8 8h136c17.645 0 32-14.355 32-32v-190c0-17.645-14.355-32-32-32zm-162 279c0 47.972-39.028 87-87 87s-87-39.028-87-87c0-45.274 34.764-82.576 79-86.628v-234.372c0-30.879-25.122-56-56-56-4.418 0-8-3.582-8-8s3.582-8 8-8c39.701 0 72 32.299 72 72v234.372c44.236 4.052 79 41.354 79 86.628zm-16 0c0-39.149-31.851-71-71-71s-71 31.851-71 71 31.851 71 71 71 71-31.851 71-71zm-71-46c-25.364 0-46 20.636-46 46s20.636 46 46 46c4.418 0 8-3.582 8-8s-3.582-8-8-8c-16.542 0-30-13.458-30-30s13.458-30 30-30 30 13.458 30 30c0 4.418 3.582 8 8 8s8-3.582 8-8c0-25.364-20.636-46-46-46z"/></svg>