<svg id="Layer_1" enable-background="new 0 0 480 480" height="512" viewBox="0 0 480 480" width="512" xmlns="http://www.w3.org/2000/svg"><path d="m472 40v400c0 17.673-14.327 32-32 32h-400c-17.673 0-32-14.327-32-32v-400c0-17.673 14.327-32 32-32h400c17.673 0 32 14.327 32 32z" fill="#ffaa64"/><path d="m472 40v4.039c0 17.416-14.118 31.534-31.534 31.534h-195.961c-93.299 0-168.932 75.633-168.932 168.932v195.961c0 17.416-14.118 31.534-31.534 31.534h-4.039c-17.673 0-32-14.327-32-32v-400c0-17.673 14.327-32 32-32h400c17.673 0 32 14.327 32 32z" fill="#ffbd7b"/><path d="m311.334 8v110.774c0 13.593-14.472 22.288-26.477 15.913l-35.757-18.998c-5.293-2.804-11.623-2.804-16.916 0l-35.757 18.999c-12.005 6.374-26.477-2.32-26.477-15.913v-110.775z" fill="#e8f8fc"/><path d="m311.334 75.573v43.202c0 13.593-14.472 22.288-26.477 15.913l-35.757-18.999c-5.293-2.804-11.623-2.804-16.916 0l-35.757 18.999c-12.006 6.374-26.477-2.32-26.477-15.913v-25.904c22.479-11.071 47.796-17.299 74.555-17.299h66.829z" fill="#d6f4fc"/><path d="m422.87 269.81c-1.97 39.73-25.85 73.31-60.87 89.41h-16c-35.01-16.09-58.9-49.66-60.87-89.41-.23-4.57 3.41-8.41 7.99-8.41h121.76c4.58 0 8.22 3.84 7.99 8.41z" fill="#fff"/><path d="m440 0h-400c-22.056 0-40 17.944-40 40v400c0 22.056 17.944 40 40 40h400c22.056 0 40-17.944 40-40v-400c0-22.056-17.944-40-40-40zm24 440c0 13.233-10.767 24-24 24h-400c-13.233 0-24-10.767-24-24v-400c0-13.233 10.767-24 24-24h121.95v102.777c0 19.648 20.915 32.176 38.226 22.979l35.766-19.001c2.943-1.563 6.458-1.563 9.401.001l35.765 18.999c17.351 9.219 38.227-3.373 38.227-22.978v-73.75c0-4.418-3.582-8-8-8s-8 3.582-8 8v73.75c0 7.574-8.024 12.405-14.72 8.848l-35.765-18.999c-7.644-4.063-16.771-4.063-24.415-.001l-35.766 19c-6.692 3.554-14.72-1.268-14.72-8.848v-102.777h262.051c13.233 0 24 10.767 24 24zm-33.046-178.827c.844 29.68-9.757 58.006-29.569 79.289-3.012 3.232-8.074 3.414-11.307.404-3.233-3.011-3.415-8.072-.404-11.307 15.137-16.259 24.04-37.37 25.198-60.159h-52.872v16.181h10.389c4.418 0 8 3.582 8 8v20.687c0 4.418-3.582 8-8 8s-8-3.582-8-8v-12.687h-10.389c-4.418 0-8-3.582-8-8v-24.181h-52.872c.609 11.994 3.581 27.479 12.635 43.167 19.294 33.428 49.098 40.413 53.234 43.729.761.608 1.448 1.397 1.959 2.299 1.459 2.566 1.044-.483 1.044 58.004h28.777c4.418 0 8 3.582 8 8s-3.582 8-8 8h-73.555c-4.418 0-8-3.582-8-8s3.582-8 8-8h28.778v-48.628c-43.872-18.628-70.271-60.492-68.954-106.798.123-4.328 3.667-7.772 7.997-7.772h137.914c4.33-.001 7.874 3.444 7.997 7.772zm-352.912 86.265c0-4.418 3.582-8 8-8h65.391c4.418 0 8 3.582 8 8s-3.582 8-8 8h-65.391c-4.419 0-8-3.583-8-8zm80.629 48.674c2.934 5.464-1.215 11.89-7.232 11.89-8.142 0-11.301-11.017-3.601-15.152 3.892-2.089 8.742-.63 10.833 3.262zm-29.029 3.888c0 4.418-3.582 8-8 8h-35.6c-4.418 0-8-3.582-8-8s3.582-8 8-8h35.601c4.418 0 7.999 3.582 7.999 8z"/></svg>