<svg id="Layer_1" enable-background="new 0 0 480 480" height="512" viewBox="0 0 480 480" width="512" xmlns="http://www.w3.org/2000/svg"><circle cx="282" cy="240" fill="#f1fafc" r="190"/><path d="m282 240v190c5.702-3.491 106.463-67.67 106.463-190z" fill="#caf2fc"/><path d="m282 50v190h106.463c0-122.329-100.761-186.508-106.463-190z" fill="#d6f4fc"/><path d="m282 50c5.702 3.491 106.463 67.67 106.463 190h83.537c0-104.932-85.067-190-190-190z" fill="#bdeffc"/><path d="m388.463 240c0 122.33-100.762 186.509-106.463 190 104.933 0 190-85.067 190-190z" fill="#b0edfc"/><path d="m282 240v190c-5.702-3.491-106.463-67.67-106.463-190z" fill="#dbf5fc"/><path d="m282 50v190h-106.463c0-122.329 100.761-186.508 106.463-190z" fill="#e8f8fc"/><path d="m175.537 240c0 122.33 100.762 186.509 106.463 190-104.933 0-190-85.067-190-190z" fill="#e5f8fc"/><path d="m239 189.15v124.7c0 10.19-8.26 18.45-18.46 18.45-1.694 0-121.067 0-124.69 0-10.2 0-18.46-8.26-18.46-18.45v-124.7c0-10.19 8.26-18.45 18.46-18.45h124.69c10.2 0 18.46 8.26 18.46 18.45z" fill="#ffaa64"/><path d="m220.553 200.7-49.121-.033c-35.363-.023-64.042 28.637-64.042 64v49.172c0 18.549-27.595 20.697-29.861 2.287-.207-1.68-.139 6.526-.139-126.977 0-10.19 8.26-18.45 18.46-18.45h124.69c20.7.001 19.432 30.001.013 30.001z" fill="#ffbd7b"/><path d="m480 240c0-109.177-88.822-198-198-198-81.209 0-151.94 49.03-182.332 120.696h-3.82c-14.588 0-26.456 11.869-26.456 26.457v124.695c0 14.588 11.868 26.457 26.456 26.457h124.695c14.589 0 26.457-11.869 26.457-26.457v-124.695c0-14.588-11.868-26.457-26.457-26.457h-21.961c20.461-50.326 56.555-82.879 75.418-97.315v349.216c-12.92-9.909-33.954-28.341-52.515-55.167-2.516-3.634-7.498-4.54-11.131-2.027-3.634 2.514-4.541 7.497-2.027 11.131 15.832 22.881 33.48 40.109 47.042 51.549-40.536-5.862-77.54-25.096-106.167-55.629-3.02-3.223-8.085-3.387-11.308-.364-3.224 3.022-3.387 8.084-.364 11.308 36.944 39.405 88.56 62.593 144.439 62.602 109.213 0 198.031-88.81 198.031-198zm-16.186-8h-67.505c-2.345-66.343-33.45-115.17-59.718-144.834-2.93-3.308-7.985-3.614-11.293-.686-3.308 2.929-3.614 7.985-.686 11.293 24.429 27.586 53.336 72.885 55.682 134.226h-69.294c-4.418 0-8 3.582-8 8s3.582 8 8 8h69.309c-2.512 67.721-38.624 126.939-90.309 166.594v-356.407c94.004 4.087 169.727 79.811 173.814 173.814zm-232.814-42.847v124.695c0 5.766-4.691 10.457-10.457 10.457h-124.695c-5.766 0-10.456-4.691-10.456-10.457v-124.695c0-5.766 4.69-10.457 10.456-10.457h124.695c5.766 0 10.457 4.691 10.457 10.457zm-49.586-26.457h-64.237c26.125-55.87 77.908-94.014 138.169-102.77-22.203 18.749-55.384 53.121-73.932 102.77zm127.334 257.334c31.381-26.479 84.49-84.035 87.562-172.03h67.505c-3.813 87.666-69.925 159.435-155.067 172.03zm-190.966-199.117c0-4.418 3.582-8 8-8h64.826c4.418 0 8 3.582 8 8s-3.582 8-8 8h-64.826c-4.418 0-8-3.581-8-8zm-68.695-4.348c4.418 0 8 3.582 8 8s-3.582 8-8 8h-6.392c-4.418 0-8-3.582-8-8s3.582-8 8-8zm-6.392 68.957h-18.26c-4.418 0-8-3.582-8-8s3.582-8 8-8h18.261c4.418 0 8 3.582 8 8s-3.583 8-8.001 8zm3.653-106.826h-38.348c-4.418 0-8-3.582-8-8s3.582-8 8-8h38.348c4.418 0 8 3.582 8 8s-3.582 8-8 8zm16.217 152.696c0 4.418-3.582 8-8 8h-5.479c-4.418 0-8-3.582-8-8s3.582-8 8-8h5.479c4.418 0 8 3.581 8 8z"/></svg>