<svg id="Layer_1" enable-background="new 0 0 480.511 480.511" height="512" viewBox="0 0 480.511 480.511" width="512" xmlns="http://www.w3.org/2000/svg"><path d="m432.255 228.3v211.11c0 18.28-14.82 33.1-33.1 33.1h-317.8c-18.28 0-33.1-14.82-33.1-33.1v-211.11c0-6.13 3.5-11.72 9.01-14.4 34.937-16.959 34.885-16.98 34.99-16.98v-164.92c0-13.25 10.75-24 24-24h248c13.25 0 24 10.75 24 24 0 167.079-.091 164.92.01 164.92l34.98 16.98c5.51 2.68 9.01 8.27 9.01 14.4z" fill="#ffe773"/><path d="m388.255 285.74-130.65 63.45c-10.95 5.32-23.75 5.32-34.7 0l-130.65-63.45c0-10.878 0-243.01 0-253.74 0-13.25 10.75-24 24-24h248c13.25 0 24 10.75 24 24z" fill="#d6f4fc"/><path d="m388.255 32v41.03c0 15.645-11.318 28.948-26.743 31.564-117.895 19.998-199.405 97.74-226.677 201.826l-42.58-20.68v-253.74c0-13.255 10.745-24 24-24h248c13.255 0 24 10.745 24 24z" fill="#e8f8fc"/><path d="m328.255 92.093v135.803c0 11.097-8.995 20.093-20.104 20.093-.612 0-132.4 0-135.793 0-11.108 0-20.104-8.995-20.104-20.093v-135.803c0-11.097 8.995-20.093 20.104-20.093h135.793c11.109 0 20.104 8.995 20.104 20.093z" fill="#ffaa64"/><path d="m308.166 104.671-53.495-.035c-38.512-.026-69.745 31.187-69.745 69.699v53.551c0 21.141-32.671 22.536-32.671.011v-135.804c0-11.097 8.995-20.093 20.104-20.093h135.793c22.543 0 21.162 32.671.014 32.671z" fill="#ffbd7b"/><path d="m92.255 196.92v88.82l-44-21.37v-36.073c0-6.127 3.499-11.717 9.011-14.393 34.936-16.963 34.884-16.984 34.989-16.984z" fill="#fada86"/><path d="m58.287 463.147c-6.188-6.014-10.032-14.427-10.032-23.738v-175.039l30 14.57c0 1.102-.016 173.779.029 174.865.445 10.758-12.276 16.847-19.997 9.342z" fill="#ffec8f"/><path d="m422.224 463.147c6.188-6.014 10.032-14.427 10.032-23.738v-175.039l-30 14.57c0 1.102.016 173.779-.029 174.865-.446 10.758 12.275 16.847 19.997 9.342z" fill="#f2d549"/><path d="m432.255 264.37-44 21.37v-88.82c.1 0 35.089 17.033 34.989 16.984 5.512 2.676 9.011 8.266 9.011 14.393z" fill="#fada86"/><path d="m176.255 64c-17.645 0-32 14.355-32 32v128c0 17.645 14.355 32 32 32h128c17.645 0 32-14.355 32-32v-128c0-17.645-14.355-32-32-32zm144 32v128c0 8.822-7.178 16-16 16h-128c-8.822 0-16-7.178-16-16v-128c0-8.822 7.178-16 16-16h128c8.823 0 16 7.178 16 16zm-41 19.576c0 4.418-3.582 8-8 8h-61.261c-4.418 0-8-3.582-8-8s3.582-8 8-8h61.261c4.418 0 8 3.582 8 8zm161 103.003v220.828c0 22.664-18.438 41.104-41.104 41.104h-317.792c-22.665 0-41.104-18.439-41.104-41.104v-221.126c0-4.418 3.582-8 8-8s8 3.582 8 8v41.083l170.142 82.625c8.809 4.278 18.911 4.278 27.717 0l119.182-57.879c3.974-1.933 8.761-.273 10.691 3.701 1.93 3.975.272 8.762-3.701 10.691l-119.182 57.879c-13.249 6.434-28.445 6.436-41.697 0l-163.152-79.23v162.256c0 13.842 11.261 25.104 25.104 25.104h317.793c13.842 0 25.104-11.262 25.104-25.104v-220.828c0-4.418 3.582-8 8-8s7.999 3.582 7.999 8zm-356 21.421v-208c0-17.645 14.355-32 32-32h248c17.645 0 32 14.355 32 32v208c0 4.418-3.582 8-8 8s-8-3.582-8-8v-208c0-8.822-7.178-16-16-16h-248c-8.822 0-16 7.178-16 16v208c0 4.418-3.582 8-8 8s-8-3.582-8-8zm83.864 122.646c3.125 3.125 3.125 8.189 0 11.314l-49.952 49.951c-1.562 1.562-3.609 2.343-5.657 2.343-7.063 0-10.712-8.601-5.657-13.657l49.952-49.951c3.126-3.122 8.191-3.122 11.314 0zm155.587 0 49.952 49.951c5.047 5.047 1.418 13.657-5.657 13.657-2.048 0-4.095-.781-5.657-2.343l-49.952-49.951c-3.124-3.124-3.124-8.189 0-11.314 3.124-3.123 8.189-3.123 11.314 0z"/></svg>