<svg id="Layer_1" enable-background="new 0 0 480 480" height="512" viewBox="0 0 480 480" width="512" xmlns="http://www.w3.org/2000/svg"><path d="m350 8c17.67 0 32 14.33 32 32v400c0 17.67-14.33 32-32 32h-220c-17.67 0-32-14.33-32-32v-400c0-17.67 14.33-32 32-32z" fill="#d6f4fc"/><path d="m351.512 8.368c25.734 1.197 24.369 39.965-1.393 39.965h-104.119c-59.647 0-108 48.353-108 108v316h-8c-17.673 0-32-14.327-32-32v-400c0-17.673 14.327-32 32-32 1.448 0 220.338-.019 221.512.035z" fill="#e8f8fc"/><path d="m382 402v38c0 17.67-14.33 32-32 32h-220c-17.67 0-32-14.33-32-32v-38z" fill="#42434d"/><path d="m138 402v38.119c0 26.061-40 27.393-40-.119v-38z" fill="#4d4e59"/><path d="m316 251v50c0 8.84-7.16 16-16 16h-120c-8.84 0-16-7.16-16-16v-50c0-8.84 7.16-16 16-16h120c8.84 0 16 7.16 16 16z" fill="#befa91"/><path d="m300.084 255h-100.084c-8.837 0-16 7.163-16 16v30.084c0 12.695-19.122 13.661-19.964.994-.056-.839-.036-51.918-.036-51.078 0-8.837 7.163-16 16-16h120c13.924 0 13.007 20 .084 20z" fill="#d0ffad"/><path d="m382 136.048c0 17.07-13.397 31.114-30.445 31.962-54.852 2.73-168.258 2.729-223.109-.001-17.049-.848-30.446-14.892-30.446-31.962 0-86.473-.005-72.914.015-85.452 4.365-1.811 9.156-2.805 14.165-2.805h255.64c5.009 0 9.799.994 14.165 2.805.023 14.651.015 85.949.015 85.453z" fill="#bdeffc"/><path d="m382 103.003c0 19.6-15.89 35.5-35.5 35.5s-35.5-15.9-35.5-35.5c0 19.6-15.89 35.5-35.5 35.5s-35.5-15.9-35.5-35.5c0 31.722-38.467 47.267-60.6 25.1-6.43-6.43-10.4-15.3-10.4-25.1 0 9.8-3.97 18.67-10.4 25.1-22.142 22.177-60.6 6.611-60.6-25.1 0-7.224 0-56.172 0-62.67 0-17.67 14.33-32 32-32h220c17.67 0 32 14.33 32 32z" fill="#fe4f60"/><path d="m350.436 38.33h-180.436c-17.673 0-32 14.334-32 32.008 0 13.669-.006 24.443-.011 32.962-.015 26.044-39.989 27.413-39.989-.3v-62.67c0-17.673 14.327-32 32-32 1.459 0 220.314-.017 221.409.03 19.344.839 18.389 29.97-.973 29.97z" fill="#ff6d7a"/><path d="m300 325c13.233 0 24-10.767 24-24v-50c0-13.233-10.767-24-24-24h-11.738l-42.668-41.72c-3.109-3.041-8.076-3.041-11.186 0l-42.668 41.72h-11.74c-13.233 0-24 10.767-24 24v50c0 13.233 10.767 24 24 24zm-59.999-122.812 25.375 24.812h-50.751zm-68.001 98.812v-50c0-4.411 3.589-8 8-8h120c4.411 0 8 3.589 8 8v50c0 4.411-3.589 8-8 8h-120c-4.411 0-8-3.589-8-8zm218-135v274c0 22.056-17.944 40-40 40h-220c-22.056 0-40-17.944-40-40v-274c0-4.418 3.582-8 8-8s8 3.582 8 8v274c0 13.233 10.767 24 24 24h220c13.233 0 24-10.767 24-24v-30h-229c-4.418 0-8-3.582-8-8s3.582-8 8-8h229v-228c0-4.418 3.582-8 8-8s8 3.582 8 8zm0-126v62.667c0 23.986-19.514 43.5-43.5 43.5-14.645 0-27.613-7.282-35.5-18.407-17.383 24.519-53.596 24.549-71 0-7.887 11.125-20.855 18.407-35.5 18.407-23.986 0-43.5-19.514-43.5-43.5 0-4.418 3.582-8 8-8s8 3.582 8 8c0 15.163 12.337 27.5 27.5 27.5s27.5-12.337 27.5-27.5c0-4.418 3.582-8 8-8s8 3.582 8 8c0 15.163 12.337 27.5 27.5 27.5s27.5-12.337 27.5-27.5c0-4.418 3.582-8 8-8s8 3.582 8 8c0 15.163 12.337 27.5 27.5 27.5s27.5-12.337 27.5-27.5v-62.667c0-13.233-10.767-24-24-24h-220c-13.233 0-24 10.767-24 24v62.667c0 15.163 12.337 27.5 27.5 27.5 4.418 0 8 3.582 8 8s-3.582 8-8 8c-23.986 0-43.5-19.514-43.5-43.5v-62.667c0-22.056 17.944-40 40-40h220c22.056 0 40 17.944 40 40zm-160 403c-4.418 0-8-3.582-8-8s3.582-8 8-8h20c4.418 0 8 3.582 8 8s-3.582 8-8 8z"/></svg>