<svg id="Layer_1" enable-background="new 0 0 480.5 480.5" height="512" viewBox="0 0 480.5 480.5" width="512" xmlns="http://www.w3.org/2000/svg"><path d="m384.025 160h-287.55c-4.577 0-8.246-3.836-7.996-8.407 4.362-80.039 70.642-143.593 151.771-143.593s147.409 63.554 151.771 143.593c.25 4.571-3.419 8.407-7.996 8.407z" fill="#fe4f60"/><path d="m358.25 320.5v128c0 13.25-10.75 24-24 24h-188c-13.25 0-24-10.75-24-24v-128c0-13.25 10.75-24 24-24h188c13.25 0 24 10.75 24 24z" fill="#ffaa64"/><path d="m248.25 47.154c-43.723 15.987-79.228 51.687-93.421 98.43-2.594 8.546-10.432 14.416-19.362 14.416h-38.997c-4.57 0-8.24-3.84-7.99-8.41 4.38-80.41 71.248-144.162 152.865-143.586 22.369.158 27.914 31.469 6.905 39.15z" fill="#ff6d7a"/><path d="m334.187 336.5h-107.937c-35.346 0-64 28.654-64 64v47.937c0 26.07-40 27.321-40 .063v-128c0-13.255 10.745-24 24-24h188c27.258 0 26.007 40-.063 40z" fill="#ffbd7b"/><path d="m284.25 296.5v44c0 8.837-7.163 16-16 16h-55.26c-8.837 0-16-7.163-16-16v-44z" fill="#d6f4fc"/><path d="m196.99 296.5h87.26v40h-87.26z" fill="#e8f8fc"/><path d="m240.25 0c-88.224 0-160 71.775-160 160 0 2.592.718 4.719 2.666 6.462l136.395 122.038h-73.061c-17.645 0-32 14.355-32 32v128c0 17.645 14.355 32 32 32h188c17.645 0 32-14.355 32-32v-128c0-17.645-14.355-32-32-32h-40c-4.418 0-8 3.582-8 8s3.582 8 8 8h40c8.822 0 16 7.178 16 16v128c0 8.822-7.178 16-16 16h-188c-8.822 0-16-7.178-16-16v-128c0-8.822 7.178-16 16-16h42.739v52c0 4.418 3.582 8 8 8h87.261c4.418 0 8-3.582 8-8v-28c0-4.418-3.582-8-8-8s-8 3.582-8 8v20h-71.261v-44c37.606 0 35.39.022 36.026-.039 3.658-.32-3.877 5.558 117.312-102.874 3.293-2.946 3.574-8.004.628-11.296-2.945-3.292-8.002-3.574-11.296-.628l-99.409 88.944v-86.107c0-4.418-3.582-8-8-8s-8 3.582-8 8v86.107l-123.62-110.607h283.62c4.418 0 8-3.582 8-8 0-88.225-71.775-160-160-160zm-143.78 152c4.166-75.694 67.063-136 143.78-136s139.614 60.306 143.78 136z"/></svg>