<svg id="Layer_1" enable-background="new 0 0 480.105 480.105" height="512" viewBox="0 0 480.105 480.105" width="512" xmlns="http://www.w3.org/2000/svg"><path d="m446.053 40v348c0 17.67-14.33 32-32 32h-348c-17.67 0-32-14.33-32-32v-348c0-17.67 14.33-32 32-32h348c17.67 0 32 14.33 32 32z" fill="#ffaa64"/><path d="m446.053 40c0 15.464-12.536 28-28 28h-174c-82.843 0-150 67.157-150 150v174c0 15.464-12.536 28-28 28-17.673 0-32-14.327-32-32v-348c0-17.673 14.327-32 32-32h348c17.673 0 32 14.327 32 32z" fill="#ffbd7b"/><path d="m303.393 8v98.36c0 12.07-12.85 19.79-23.51 14.13l-31.75-16.87c-4.7-2.49-10.32-2.49-15.02 0l-31.75 16.87c-10.66 5.66-23.51-2.06-23.51-14.13v-98.36z" fill="#e8f8fc"/><path d="m303.393 68v38.36c0 12.07-12.85 19.79-23.51 14.13l-31.75-16.87c-4.7-2.49-10.32-2.49-15.02 0l-31.75 16.87c-10.66 5.66-23.51-2.06-23.51-14.13v-23c19.96-9.83 42.44-15.36 66.2-15.36z" fill="#d6f4fc"/><path d="m339.153 433.24c4.79 19.8-10.21 38.87-30.58 38.87h-135.04c-20.37 0-35.37-19.07-30.58-38.87 5.106-21.128 18.524-76.589 24.1-99.64 3.42-14.12 16.06-24.06 30.59-24.06h86.82c14.53 0 27.17 9.94 30.59 24.06 24.155 99.858 19.77 81.724 24.1 99.64z" fill="#42434d"/><path d="m284.553 349.54h-46.911c-14.53 0-27.17 9.94-30.59 24.06-3.491 14.433-11.222 46.391-17.217 71.176-7.155 29.579-51.894 21.429-47.44-8.675.304-2.058-1.565 5.902 24.657-102.502 3.42-14.119 16.06-24.06 30.59-24.06h86.829c27.435.001 26.169 40.001.082 40.001z" fill="#4d4e59"/><path d="m454.053 40v348c0 22.056-17.944 40-40 40h-37c-4.418 0-8-3.582-8-8s3.582-8 8-8h37c13.233 0 24-10.767 24-24v-348c0-13.233-10.767-24-24-24h-228.199v90.362c0 6.037 6.425 9.897 11.752 7.065l31.759-16.871c7.05-3.746 15.47-3.747 22.52.001l31.756 16.869c5.339 2.839 11.754-1.038 11.754-7.064v-60.157c0-4.418 3.582-8 8-8s8 3.582 8 8v60.157c0 18.122-19.291 29.68-35.261 21.194l-31.756-16.869c-2.352-1.25-5.156-1.249-7.506-.001l-31.759 16.871c-15.996 8.498-35.259-3.107-35.259-21.195v-90.362h-103.801c-13.233 0-24 10.767-24 24v348c0 13.233 10.767 24 24 24h37c4.418 0 8 3.582 8 8s-3.582 8-8 8h-37c-22.056 0-40-17.944-40-40v-348c0-22.056 17.944-40 40-40h348c22.055 0 40 17.944 40 40zm-312.166 270.438c0-4.418-3.582-8-8-8h-26.792c-4.418 0-8 3.582-8 8s3.582 8 8 8h26.792c4.418 0 8-3.583 8-8zm-19.084 37.651h-15.708c-4.418 0-8 3.582-8 8s3.582 8 8 8h15.708c4.418 0 8-3.582 8-8s-3.582-8-8-8zm224.128 83.272c6.007 24.821-12.784 48.744-38.357 48.744h-135.042c-25.547 0-44.37-23.897-38.357-48.745l24.105-99.639c4.301-17.773 20.074-30.186 38.358-30.186h11.437c-5.042-20.812 10.84-40.642 31.978-40.642 10.948 0 21.148 5.422 27.284 14.504 2.474 3.661 1.511 8.634-2.15 11.107s-8.634 1.51-11.107-2.15c-3.156-4.672-8.399-7.461-14.026-7.461-12.668 0-20.811 13.478-15.033 24.642h58.447c18.284 0 34.058 12.412 38.358 30.185zm-15.551 3.763-24.105-99.641c-2.558-10.566-11.937-17.947-22.808-17.947-10.565 0-77.011 0-86.828 0-10.871 0-20.25 7.381-22.808 17.948l-24.105 99.639c-3.573 14.765 7.608 28.982 22.807 28.982h135.041c15.18 0 26.383-14.2 22.806-28.981z"/></svg>