<svg id="Layer_1" enable-background="new 0 0 479.712 479.712" height="512" viewBox="0 0 479.712 479.712" width="512" xmlns="http://www.w3.org/2000/svg"><path d="m471.712 44.882v80c0 17.673-14.327 32-32 32-135.652 0-126.216-.528-128.995 1.133l-42.901 25.635c-5.332 3.186-12.104-.656-12.104-6.867v-11.9c0-4.418-3.582-8-8-8h-8c-17.673 0-32-14.327-32-32v-80c0-17.673 14.327-32 32-32h200c17.673-.001 32 14.325 32 31.999z" fill="#d6f4fc"/><path d="m457.864 18.521c15.602 10.765 7.583 35.357-11.372 35.357h-128.628c-39.296 0-71.153 31.856-71.153 71.153 0 25.411-39 26.722-39-.153v-80c0-17.673 14.327-32 32-32h200c6.741 0 12.995 2.084 18.153 5.643z" fill="#e8f8fc"/><path d="m387.452 358.878c15.62 15.62 15.62 40.95 0 56.57-13.596 13.584-10.242 10.232-16.27 16.26-46.86 46.87-122.84 46.87-169.7 0l-158.39-158.39c-46.87-46.86-46.87-122.84 0-169.7l16.26-16.27c15.62-15.62 40.95-15.62 56.57 0l44.55 44.55c15.62 15.62 15.62 40.95 0 56.57l-18.63 18.62c-11.97 11.98-11.97 31.39 0 43.37l82.5 82.5c11.98 11.97 31.39 11.97 43.37 0l18.62-18.63c15.62-15.62 40.95-15.62 56.57 0z" fill="#befa91"/><path d="m145.736 333.966c4.969 15.722-14.435 27.561-26.094 15.901l-76.55-76.55c-46.87-46.86-46.87-122.84 0-169.7l16.26-16.27c15.62-15.62 40.95-15.62 56.57 0l44.55 44.55c15.62 15.62 15.62 40.95 0 56.57l-18.63 18.62c-6.572 6.581-9.532 15.4-8.89 24 .384 5.159-4.577 47.945 12.784 102.879z" fill="#d0ffad"/><path d="m393.105 353.224c18.759 18.758 18.762 49.121 0 67.882l-11.563 11.563c-3.124 3.124-8.189 3.125-11.313 0s-3.125-8.19 0-11.314l11.563-11.563c12.506-12.505 12.508-32.747 0-45.255l-44.547-44.548c-12.478-12.476-32.779-12.476-45.255 0l-18.621 18.621c-15.111 15.111-39.57 15.113-54.683 0l-82.496-82.496c-15.111-15.111-15.113-39.57 0-54.683l18.621-18.621c12.477-12.477 12.477-32.778 0-45.255l-44.548-44.547c-12.506-12.506-32.748-12.507-45.255 0l-16.264 16.263c-43.771 43.772-43.775 114.616 0 158.392l158.392 158.392c31.453 31.452 78.552 41.32 119.998 25.14 4.116-1.607 8.754.427 10.361 4.542 1.607 4.116-.427 8.755-4.542 10.362-47.41 18.509-101.225 7.176-137.13-28.731l-158.393-158.391c-49.907-49.907-49.907-131.112 0-181.019l16.264-16.263c18.758-18.759 49.121-18.762 67.882 0l44.548 44.547c18.715 18.715 18.715 49.167 0 67.882l-18.621 18.621c-8.858 8.858-8.859 23.196 0 32.056l82.496 82.496c8.837 8.838 23.217 8.838 32.056 0l18.621-18.621c18.714-18.714 49.167-18.715 67.882 0zm46.607-348.386h-200c-22.056 0-40 17.944-40 40v80c0 22.056 17.944 40 40 40h8v26c0 4.426 3.593 8 8 8 3.052 0-1.009 1.922 61.003-35.133 3.793-2.266 5.03-7.178 2.764-10.971s-7.178-5.03-10.971-2.764l-44.796 26.768v-19.9c0-4.418-3.582-8-8-8h-16c-13.233 0-24-10.767-24-24v-80c0-13.233 10.767-24 24-24h200c13.233 0 24 10.767 24 24v80c0 13.233-10.767 24-24 24h-83.333c-4.418 0-8 3.582-8 8s3.582 8 8 8h83.333c22.056 0 40-17.944 40-40v-80c0-22.056-17.944-40-40-40zm-177 88c12.131 0 22-9.869 22-22s-9.869-22-22-22h-14c-4.418 0-8 3.582-8 8s3.582 8 8 8h14c3.309 0 6 2.691 6 6s-2.691 6-6 6c-12.131 0-22 9.869-22 22v14c0 4.418 3.582 8 8 8h28c4.418 0 8-3.582 8-8s-3.582-8-8-8h-20v-6c0-3.309 2.691-6 6-6zm70 28c4.418 0 8-3.582 8-8 0-6.797 0-49.177 0-56 0-4.418-3.582-8-8-8s-8 3.582-8 8v20h-12v-20c0-4.418-3.582-8-8-8s-8 3.582-8 8v28c0 4.418 3.582 8 8 8h20v20c0 4.418 3.581 8 8 8zm78.522.002c3.321 0 6.425-2.084 7.565-5.401l19.25-56c1.784-5.189-2.078-10.601-7.565-10.601h-27.771c-4.418 0-8 3.582-8 8s3.582 8 8 8h16.562l-15.606 45.399c-1.795 5.216 2.107 10.606 7.565 10.603zm-42.99-6.083 14-56c1.071-4.287-1.535-8.63-5.821-9.702-4.287-1.07-8.63 1.535-9.702 5.821l-14 56c-1.071 4.287 1.535 8.63 5.821 9.702 4.293 1.071 8.632-1.539 9.702-5.821z"/></svg>